# Blender v3.2.0 OBJ File: ''
# www.blender.org
mtllib eyelashes.mtl
o Plane
v 0.016291 1.555952 0.135025
v 0.024860 1.553902 0.136554
v 0.025190 1.559750 0.134371
v 0.018354 1.561031 0.131288
v 0.032588 1.554139 0.136912
v 0.032507 1.559807 0.134325
v 0.038752 1.555528 0.134814
v 0.038671 1.560488 0.130901
v 0.045822 1.559846 0.129869
v 0.043553 1.563459 0.126265
v 0.014989 1.567506 0.137514
v 0.022611 1.570588 0.140469
v 0.022611 1.566972 0.135757
v 0.016578 1.563316 0.133103
v 0.030506 1.571515 0.141132
v 0.029886 1.568446 0.136953
v 0.038523 1.571399 0.138367
v 0.036050 1.568047 0.135430
v 0.045631 1.568930 0.132971
v 0.043362 1.564250 0.128560
v -0.016002 1.555959 0.136455
v -0.024640 1.554135 0.137984
v -0.024640 1.559939 0.134565
v -0.017046 1.560659 0.131950
v -0.032368 1.554372 0.138342
v -0.032368 1.559420 0.134545
v -0.038532 1.556199 0.136663
v -0.038532 1.560809 0.131474
v -0.046376 1.560248 0.131432
v -0.043731 1.563487 0.126265
v -0.015524 1.567132 0.136942
v -0.022391 1.570214 0.139897
v -0.022391 1.567072 0.135757
v -0.016358 1.563272 0.133103
v -0.030285 1.571141 0.140560
v -0.029666 1.568299 0.136953
v -0.038303 1.571025 0.137795
v -0.035830 1.567900 0.135430
v -0.046271 1.568383 0.132399
v -0.043773 1.564498 0.128560
vt 0.000000 1.000000
vt 0.000000 0.744790
vt 0.476476 0.744790
vt 0.476476 1.000000
vt 0.000000 0.491284
vt 0.476476 0.491284
vt 0.000000 0.251382
vt 0.476476 0.251382
vt 0.000000 0.000000
vt 0.476476 0.000000
vt 0.523966 1.000000
vt 0.523966 0.744790
vt 1.000442 0.744790
vt 1.000442 1.000000
vt 0.523966 0.491284
vt 1.000442 0.491284
vt 0.523966 0.251382
vt 1.000442 0.251382
vt 0.523966 0.000000
vt 1.000442 0.000000
vt 0.000000 1.000000
vt 0.000000 0.744790
vt 0.476476 0.744790
vt 0.476476 1.000000
vt 0.000000 0.491284
vt 0.476476 0.491284
vt 0.000000 0.251382
vt 0.476476 0.251382
vt 0.000000 0.000000
vt 0.476476 0.000000
vt 0.523966 1.000000
vt 0.523966 0.744790
vt 1.000442 0.744790
vt 1.000442 1.000000
vt 0.523966 0.491284
vt 1.000442 0.491284
vt 0.523966 0.251382
vt 1.000442 0.251382
vt 0.523966 0.000000
vt 1.000442 0.000000
vn -0.1488 0.4961 0.8554
vn -0.0266 0.3831 0.9233
vn 0.2812 0.5038 0.8167
vn 0.1644 0.6754 0.7189
vn -0.0990 0.7475 -0.6569
vn -0.0533 0.7999 -0.5977
vn -0.1146 0.7818 -0.6129
vn -0.0969 0.7873 -0.6089
vn -0.1603 0.7665 -0.6220
vn -0.2327 0.7276 -0.6453
vn -0.1065 -0.6055 -0.7887
vn -0.0081 -0.5536 -0.8327
vn 0.1038 -0.6775 -0.7282
vn 0.0606 -0.8029 -0.5931
vn -0.1077 -0.7416 0.6621
vn -0.0379 -0.7923 0.6090
vn -0.1137 -0.7642 0.6349
vn -0.0931 -0.7720 0.6288
vn -0.1700 -0.7397 0.6511
vn -0.2216 -0.7296 0.6470
usemtl None
s 1
f 1/1/1 2/2/1 3/3/1 4/4/1
f 3/3/2 2/2/2 5/5/2 6/6/2
f 7/7/3 8/8/3 6/6/3 5/5/3
f 9/9/4 10/10/4 8/8/4 7/7/4
f 11/11/5 12/12/5 13/13/5 14/14/5
f 13/13/6 12/12/6 15/15/7 16/16/8
f 17/17/9 18/18/9 16/16/8 15/15/7
f 19/19/10 20/20/10 18/18/10 17/17/10
f 21/21/11 22/22/11 23/23/11 24/24/11
f 23/23/12 22/22/12 25/25/12 26/26/12
f 27/27/13 28/28/13 26/26/13 25/25/13
f 29/29/14 30/30/14 28/28/14 27/27/14
f 31/31/15 32/32/15 33/33/15 34/34/15
f 33/33/16 32/32/16 35/35/17 36/36/18
f 37/37/19 38/38/19 36/36/18 35/35/17
f 39/39/20 40/40/20 38/38/20 37/37/20
